<?xml version="1.0" encoding="iso-8859-1"?>
<!-- Generator: Adobe Illustrator 19.0.0, SVG Export Plug-In . SVG Version: 6.00 Build 0)  -->
<svg version="1.1" id="Layer_1" xmlns="http://www.w3.org/2000/svg" xmlns:xlink="http://www.w3.org/1999/xlink" x="0px" y="0px"
	 viewBox="0 0 270.176 270.176" style="enable-background:new 0 0 270.176 270.176;" xml:space="preserve">
<g>
	<g>
		<g>
			<path d="M135.088,0C60.6,0,0,60.604,0,135.088s60.6,135.088,135.088,135.088s135.088-60.6,135.088-135.088S209.576,0,135.088,0z
				 M135.088,263.92c-71.04,0-128.832-57.792-128.832-128.828S64.048,6.264,135.088,6.264S263.92,64.048,263.92,135.088
				S206.124,263.92,135.088,263.92z"/>
			<path d="M135.088,25.504c-62.408,0-113.176,50.776-113.176,113.18c0,11.108,1.628,22.128,4.832,32.752l3.656,2.152
				c22.484-4.884,47.164-8.096,73.348-9.544c0.352-0.02,0.676-0.132,0.984-0.256l12.684,32.032c-0.184,0.16-0.356,0.34-0.48,0.564
				c-2.008,3.616-3.072,7.724-3.072,11.876c0,13.492,10.98,24.476,24.48,24.476c13.496,0,24.476-10.98,24.476-24.476
				c0-9.368-5.216-17.772-13.616-21.936c-1.084-0.532-2.396-0.088-2.932,0.988c-0.536,1.088-0.096,2.396,0.992,2.936
				c6.896,3.42,11.176,10.324,11.176,18.016c0,11.08-9.016,20.092-20.096,20.092s-20.096-9.012-20.096-20.092
				c0-2.416,0.46-4.812,1.3-7.06l3.792,9.572c0.728,2.996,3.556,5.88,7.2,7.34c1.712,0.688,3.492,1.024,5.276,1.024
				c2.704,0,5.396-0.78,7.824-2.308c8.348-4.372,8.148-13.192,5.996-17.852l-46.788-88.312c-2.356-5.108-7.9-7.58-12.364-5.528
				c-2.22,1.02-3.828,2.988-4.52,5.536c-0.656,2.404-0.408,5.052,0.652,7.34l15.78,39.848c-19.756,1.128-38.632,3.28-56.408,6.364
				c-1.628-7.052-2.496-14.164-2.496-21.192c0-2.056,0.172-4.068,0.3-6.092c0.324,0.192,0.684,0.332,1.092,0.332H58.68
				c1.208,0,2.188-0.976,2.188-2.188c0-1.208-0.98-2.188-2.188-2.188H44.884c-0.3,0-0.588,0.06-0.848,0.172
				c2.48-23.632,13.712-44.576,30.252-59.524c0.104,0.296,0.26,0.58,0.5,0.82l6.908,6.904c0.428,0.428,0.988,0.644,1.548,0.644
				s1.12-0.216,1.552-0.644c0.856-0.856,0.856-2.24-0.004-3.096l-6.912-6.904c-0.172-0.176-0.384-0.292-0.592-0.392
				c15.056-12.456,34.072-20.044,54.784-20.552v13.78c0,1.212,0.98,2.188,2.188,2.188s2.192-0.976,2.192-2.188v-13.78
				c23.516,0.576,44.824,10.312,60.656,25.884l-9.64,8.308c-0.916,0.788-1.02,2.172-0.232,3.092c0.432,0.5,1.048,0.76,1.66,0.76
				c0.508,0,1.016-0.176,1.428-0.532l9.82-8.464c13.24,14.324,22.116,32.896,24.32,53.524h-8.532c-1.208,0-2.192,0.98-2.192,2.188
				c0,1.212,0.98,2.188,2.192,2.188h8.816c0.116,1.916,0.284,3.816,0.284,5.76c0,6.864-0.832,13.812-2.388,20.708
				c-22.932-4.228-45.98-6.724-77.352-6.724c-1.728,0-3.128,1.404-3.128,3.132c0,1.728,1.4,3.128,3.128,3.128
				c39.168,0,65.192,3.944,94.48,10.308l3.66-2.152c3.208-10.624,4.832-21.644,4.832-32.752
				C248.264,76.28,197.492,25.504,135.088,25.504z M90.636,116.296c-0.676-1.468-0.836-3.056-0.448-4.468
				c0.348-1.276,1.104-2.236,2.128-2.712c0.468-0.216,0.968-0.312,1.48-0.312c1.936,0,4.036,1.46,5.124,3.812l46.792,88.312
				c1.024,2.224,2.28,8.736-4.172,12.064l-0.176,0.1c-3.884,2.496-7.424,1.684-9.192,0.964c-2.684-1.08-4.256-2.988-4.668-4.6
				L90.636,116.296z M238.24,166.86c-3.796-0.812-7.548-1.576-11.288-2.3c1.604-7.16,2.46-14.38,2.46-21.52
				c0-2.676-0.132-5.32-0.344-7.94v-0.012c0-0.004-0.004-0.012-0.004-0.016c-1.86-23.296-11.78-44.288-26.916-60.056
				c-0.04-0.056-0.052-0.124-0.1-0.176c-0.068-0.08-0.16-0.116-0.24-0.184c-17.252-17.788-41.16-28.824-67.552-28.824
				c-52.468,0-95.152,43.604-95.152,97.208c0,7.3,0.9,14.684,2.576,22c-3.26,0.6-6.564,1.16-9.74,1.824
				c-2.504-9.176-3.772-18.644-3.772-28.18c0-58.956,47.964-106.916,106.92-106.916s106.92,47.96,106.92,106.916
				C242.008,148.22,240.74,157.684,238.24,166.86z"/>
			<path d="M219.824,209.768c-8.976,9.572-19.348,17.32-31.064,23.232c-2.536,1.28-0.304,5.088,2.228,3.812
				c12.036-6.072,22.736-14.088,31.956-23.92C224.884,210.816,221.772,207.688,219.824,209.768z"/>
			<path d="M234.628,190.728c-1.936,4.044-4.472,7.632-7.668,10.78c-2.028,1.996,1.096,5.12,3.12,3.124
				c3.448-3.392,6.268-7.312,8.36-11.676C239.66,190.404,235.86,188.16,234.628,190.728z"/>
		</g>
	</g>
</g>
<g>
</g>
<g>
</g>
<g>
</g>
<g>
</g>
<g>
</g>
<g>
</g>
<g>
</g>
<g>
</g>
<g>
</g>
<g>
</g>
<g>
</g>
<g>
</g>
<g>
</g>
<g>
</g>
<g>
</g>
</svg>
