<?xml version="1.0" encoding="iso-8859-1"?>
<!-- Generator: Adobe Illustrator 18.0.0, SVG Export Plug-In . SVG Version: 6.00 Build 0)  -->
<!DOCTYPE svg PUBLIC "-//W3C//DTD SVG 1.1//EN" "http://www.w3.org/Graphics/SVG/1.1/DTD/svg11.dtd">
<svg version="1.1" id="Capa_1" xmlns="http://www.w3.org/2000/svg" xmlns:xlink="http://www.w3.org/1999/xlink" x="0px" y="0px"
	 viewBox="0 0 487.409 487.409" style="enable-background:new 0 0 487.409 487.409;" xml:space="preserve">
<g>
	<linearGradient id="SVGID_1_" gradientUnits="userSpaceOnUse" x1="353.7174" y1="86.1987" x2="383.5028" y2="86.1987">
		<stop  offset="0" style="stop-color:#ED1C24"/>
		<stop  offset="0.1372" style="stop-color:#E81B23"/>
		<stop  offset="0.303" style="stop-color:#D91A21"/>
		<stop  offset="0.4837" style="stop-color:#C1171D"/>
		<stop  offset="0.6749" style="stop-color:#9F1318"/>
		<stop  offset="0.8723" style="stop-color:#730E12"/>
		<stop  offset="1" style="stop-color:#530A0D"/>
	</linearGradient>
	<path style="fill:url(#SVGID_1_);" d="M383.503,85.319l-3.09,5.47c-3.13,5.52-9.38,8.29-15.57,6.89
		c-7.59-1.71-12.44-9.3-10.81-16.91l1.38-6.41c2.82,0.84,5.61,1.91,8.34,3.21l1.19,0.57l-0.65,5.36c-0.57,4.72,2.66,8.95,7.36,9.64
		c0.41,0.06,0.83,0.09,1.25,0.09c1.93,0,3.84-0.65,5.38-1.86c1.86-1.47,3.06-3.67,3.27-6.03l0.04-0.37
		C382.233,85.099,382.863,85.219,383.503,85.319z"/>
	<linearGradient id="SVGID_2_" gradientUnits="userSpaceOnUse" x1="394.8562" y1="142.3217" x2="338.1145" y2="142.3217">
		<stop  offset="0" style="stop-color:#7A7A7A"/>
		<stop  offset="1" style="stop-color:#000000"/>
	</linearGradient>
	<path style="fill:url(#SVGID_2_);" d="M393.183,162.749c1.39,1.86,1.93,4.13,1.56,6.38l-18.19,1.16
		c-6.59,0.42-12.27-4.38-12.97-10.92l-0.89-8.2c-1.03-9.51-7.93-17.55-17.19-20c-3.33-0.88-5.84-3.27-6.9-6.56
		c-1.05-3.28-0.39-6.69,1.82-9.34l0.77-0.94c4.75,4.07,10.8,6.34,17.11,6.34c0.68,0,1.37-0.03,2.06-0.08l5.31-0.42l-1.73,13.69
		c-0.81,6.45,1.18,12.95,5.48,17.82c4.3,4.88,10.5,7.68,17,7.68C389.113,159.359,391.573,160.589,393.183,162.749z"/>
	<linearGradient id="SVGID_3_" gradientUnits="userSpaceOnUse" x1="289.2128" y1="21.1789" x2="304.1928" y2="21.1789">
		<stop  offset="0" style="stop-color:#626262"/>
		<stop  offset="0.0214" style="stop-color:#5E5E5E"/>
		<stop  offset="0.2055" style="stop-color:#3C3C3C"/>
		<stop  offset="0.394" style="stop-color:#222222"/>
		<stop  offset="0.5864" style="stop-color:#0F0F0F"/>
		<stop  offset="0.7851" style="stop-color:#040404"/>
		<stop  offset="1" style="stop-color:#000000"/>
	</linearGradient>
	<path style="fill:url(#SVGID_3_);" d="M290.173,12.119l14.02,11.52c-6.25,1.29-11.26,3.95-14.98,6.6L290.173,12.119z"/>
	<linearGradient id="SVGID_4_" gradientUnits="userSpaceOnUse" x1="398.6826" y1="410.8792" x2="345.6653" y2="463.8964">
		<stop  offset="0.2901" style="stop-color:#67460C"/>
		<stop  offset="1" style="stop-color:#F6A91D"/>
	</linearGradient>
	<path style="fill:url(#SVGID_4_);" d="M408.193,420.499c10.65,9.33,13.82,23.12,9.47,41c-14.74,5.74-32.08,7.36-49.1,4.52
		c-35.44-5.91-48.61-26.99-53.49-41.13C345.163,413.109,385.883,401.009,408.193,420.499z"/>
	<linearGradient id="SVGID_5_" gradientUnits="userSpaceOnUse" x1="25.2357" y1="400.4639" x2="460.0211" y2="400.4639">
		<stop  offset="0.0502" style="stop-color:#946611"/>
		<stop  offset="0.5154" style="stop-color:#F6A91D"/>
		<stop  offset="0.6057" style="stop-color:#E8A01B"/>
		<stop  offset="0.7749" style="stop-color:#C58717"/>
		<stop  offset="1" style="stop-color:#8C6011"/>
	</linearGradient>
	<path style="fill:url(#SVGID_5_);" d="M454.693,368.649c7.19,22.26,7.1,42.74-0.25,59.24c-5.56,12.47-15.08,22.51-27.74,29.42
		c2.99-18.12-1.45-32.5-13.24-42.83c-26.49-23.14-72.5-8.6-104.81,4.35c-14.19,5.69-27.94,12.05-40.07,17.66
		c-8.76,4.06-17.03,7.89-23.81,10.68c-52.12,21.48-96.45,32.32-131.25,32.32c-19.63,0-36.23-3.45-49.46-10.39
		c-18.51-9.7-30.48-26.54-35.6-50.05c-6.03-27.71-3.6-50.26,7.21-67c11.81-18.3,31.81-26.73,47.68-30.61
		c0.28,0.76,0.57,1.5,0.86,2.25c-11.33,10.94-15.15,26.25-9.46,38.9c5.89,13.08,20.17,20.29,39.27,20.29c3.89,0,7.99-0.3,12.25-0.92
		c17.9-2.56,38.57-10.33,61.42-23.09c0.01,0,0.01,0,0.01,0s0,0,0-0.01c2.75-1.52,5.42-3.06,8.18-4.7
		c13.99-8.34,28.23-15.69,42.4-21.92c1.35,3.83,4.28,6.99,8.15,8.56c34.51,14.04,73.29,12.31,106.41-4.76
		c8.34-4.29,18.19-4.09,26.35,0.54l6.23,3.54c10.91,6.19,24.31,6.96,35.86,2.06c2.76-1.17,5.96-0.33,7.85,2.34
		c0.31,0.44,0.52,0.92,0.69,1.42l-11.29,7.66c-1.82,1.24-2.3,3.72-1.06,5.55c0.77,1.14,2.03,1.76,3.31,1.76
		c0.78,0,1.56-0.23,2.24-0.69l12.04-7.2c0.16-0.04,0.32-0.07,0.47-0.13l5.62-2.14c1.36-0.52,2.67-1.16,3.89-1.91
		C449.153,354.909,452.393,361.549,454.693,368.649z"/>
	<linearGradient id="SVGID_6_" gradientUnits="userSpaceOnUse" x1="426.3049" y1="81.5894" x2="401.1509" y2="125.1575">
		<stop  offset="0" style="stop-color:#626262"/>
		<stop  offset="1" style="stop-color:#000000"/>
	</linearGradient>
	<path style="fill:url(#SVGID_6_);" d="M447.983,101.729c0.04,2.3-0.53,4.51-1.42,6.32c-2.16,4.42-7.37,8.86-14.92,6.78
		c-0.23-0.06-0.37-0.1-0.4-0.11c-1.25-0.42-2.64-0.19-3.69,0.62l-4.02,3.08c-5.98,4.58-13.37,6.5-20.82,5.39
		c-7.44-1.1-13.96-5.08-18.35-11.19l-6.4-8.91c3.85-1.93,7.16-5,9.41-8.98l5.2-9.19c7.52-0.78,14.75-3.92,20.54-9.26
		c3.44,1.21,10.52,3.93,18.37,8.3l-12.72,4.25c-1.47,0.49-2.53,1.78-2.71,3.32s0.54,3.05,1.85,3.87l2.14,1.33
		c5.8,3.63,12.46,5.47,19.15,5.47C442.143,102.819,445.093,102.459,447.983,101.729z"/>
	<linearGradient id="SVGID_7_" gradientUnits="userSpaceOnUse" x1="234.0428" y1="136.443" x2="58.6874" y2="136.443">
		<stop  offset="0" style="stop-color:#626262"/>
		<stop  offset="1" style="stop-color:#000000"/>
	</linearGradient>
	<path style="fill:url(#SVGID_7_);" d="M234.043,68.419l-16.7,9.79c-15.2,8.9-28.71,20.07-40.19,32.95l-0.01-0.01l-43.18,33.35
		c-26.61,20.56-45.38,48.3-54.43,80.4c-2.09-0.14-5.5-0.4-11.09-0.86c-3.66-0.31-6.75-2.34-8.48-5.58
		c-1.73-3.24-1.7-6.94,0.09-10.14l18.94-34.09c0.46-0.84,0.61-1.81,0.42-2.75c-3.63-17.62,5.24-35.09,21.57-42.48
		c33.71-15.26,54.05-27.74,60.46-37.1c4.85-7.1,8.77-15.6,11.65-25.26c0.94-3.15,3.25-5.69,6.33-6.94c1.09-0.45,2.24-0.7,3.39-0.79
		c-2.46,3.42-4.07,8.09-2.57,13.73c0.48,1.79,2.1,2.97,3.87,2.97c0.34,0,0.69-0.05,1.03-0.14c2.14-0.57,3.4-2.76,2.84-4.9
		c-0.18-0.67-1.57-6.66,4.93-10.28c0.02-0.01,0.03-0.03,0.05-0.03c0.2-0.12,0.39-0.24,0.58-0.39l0.04-0.03c0-0.01,0-0.01,0-0.01
		l12.14-9.97c2.25-1.85,5.21-2.36,7.95-1.39c2.21,0.79,3.92,2.45,4.79,4.57c-2.65,3.76-7.22,11.13-6.55,16.47
		c0.26,2.02,1.98,3.5,3.97,3.5c0.16,0,0.33-0.01,0.5-0.03c2.19-0.27,3.74-2.27,3.47-4.46c-0.19-1.56,1.59-5.31,3.8-8.84
		L234.043,68.419z"/>
	<linearGradient id="SVGID_8_" gradientUnits="userSpaceOnUse" x1="187.6928" y1="254.2789" x2="81.6269" y2="254.2789">
		<stop  offset="0" style="stop-color:#7A7A7A"/>
		<stop  offset="1" style="stop-color:#000000"/>
	</linearGradient>
	<path style="fill:url(#SVGID_8_);" d="M187.693,349.679c-1.29,0.74-2.58,1.47-3.88,2.2h-0.01c-21.13,11.8-40.18,19.14-56.65,21.84
		c-0.39-0.38-0.77-0.77-1.17-1.16c-14.5-14.16-25.72-30.74-33.34-49.29c-1.04-2.53-2.04-5.17-2.96-7.82
		c-9.49-27.54-10.62-57.06-3.26-85.37c8.24-31.71,26.37-59.11,52.44-79.24l20.7-16c-10.36,16.89-17.75,35.67-21.59,55.55
		c-9.08,47.07,2.56,95.8,31.95,133.67C176.273,332.249,182.243,340.859,187.693,349.679z"/>
	<linearGradient id="SVGID_9_" gradientUnits="userSpaceOnUse" x1="444.4482" y1="150.7507" x2="153.8549" y2="280.1312">
		<stop  offset="0" style="stop-color:#1C1C1C"/>
		<stop  offset="0.0859" style="stop-color:#222222"/>
		<stop  offset="0.199" style="stop-color:#323232"/>
		<stop  offset="0.2813" style="stop-color:#434343"/>
		<stop  offset="0.3975" style="stop-color:#3C3C3C"/>
		<stop  offset="0.563" style="stop-color:#2A2A2A"/>
		<stop  offset="0.5818" style="stop-color:#272727"/>
		<stop  offset="0.7995" style="stop-color:#525252"/>
		<stop  offset="1" style="stop-color:#242424"/>
	</linearGradient>
	<path style="fill:url(#SVGID_9_);" d="M451.113,303.999c2.78,2.04,4.12,5.28,3.58,8.68c-0.41,2.67-1.91,4.88-4.11,6.24
		c-2.08-1.61-5.4-3.56-9.17-3.52c-3.04,0.03-5.83,1.35-8.04,3.82c-1.48,1.64-1.35,4.17,0.3,5.64c1.64,1.48,4.17,1.35,5.65-0.29
		c0.91-1.02,1.63-1.16,2.16-1.17c0.01,0,0.03,0,0.04,0c1.69,0,3.8,1.47,4.96,2.51c1.21,3.21,1.17,6.69-0.17,9.88
		c-1.43,3.41-4.12,6.01-7.58,7.32l-1.26,0.48c-0.9-2.79-2.66-5.27-5.14-7.09c-4.13-3.07-9.43-3.7-14.18-1.68
		c-9.26,3.93-20.03,3.31-28.78-1.66l-6.23-3.54c-10.52-5.97-23.21-6.22-33.96-0.69c-31.04,15.99-67.4,17.62-99.74,4.46
		c-2.3-0.93-3.85-3.13-3.96-5.61l-0.26-5.59c-0.97-21.44-8.05-42.01-20.47-59.51c-15.24-21.48-19.37-49.21-11.04-74.19
		c0.7-2.1-0.43-4.36-2.53-5.06c-2.09-0.7-4.36,0.43-5.06,2.53c-9.13,27.39-4.6,57.8,12.11,81.35c11.52,16.24,18.09,35.34,19,55.24
		l0.06,1.4c-14.26,6.16-28.6,13.44-42.7,21.69c-5.62-9.12-11.78-18.01-18.35-26.48c-27.97-36.06-39.06-82.44-30.42-127.25
		c8.65-44.81,36.19-83.74,75.57-106.8l34.05-19.95c5.96,10.49,11.4,16.78,16.53,19.15c2,0.92,4.38,0.05,5.31-1.96
		c0.92-2,0.05-4.38-1.96-5.31c-6.2-2.86-14.38-17.37-20.45-30.72l15.55,11.15c3.71,2.66,5.65,7.13,5.04,11.66
		c-0.29,2.19,1.25,4.2,3.44,4.49c0.18,0.03,0.36,0.04,0.53,0.04c1.98,0,3.69-1.46,3.96-3.47c1-7.47-2.19-14.83-8.31-19.22
		l-12.6-9.04l21.4,3.85c0.94,0.17,1.6,0.47,2.08,0.81c0.47,0.34,0.76,0.71,0.97,1.03c1.73,2.66,1.07,7.64,0.7,9.16
		c-0.53,2.14,0.78,4.31,2.92,4.84c0.32,0.08,0.65,0.12,0.97,0.12c1.79,0,3.42-1.22,3.88-3.04c0.23-0.94,2.16-9.37-1.75-15.41
		c-0.91-1.42-2.08-2.59-3.46-3.49c3.7-3.53,11.82-9.55,23.69-8.92l75.81,19.74c9.37,2.44,16.46,10.22,18.13,19.65
		c-8.34,7.77-20.53,9.71-30.93,4.72l-9.68-4.63c-25.57-12.24-55.55-6.38-74.62,14.59c-1.07,1.19-1.34,2.9-0.68,4.35
		c0.67,1.46,2.13,2.37,3.73,2.34c0.2,0,19.13-0.36,28.35,5.4c0.66,0.42,1.39,0.61,2.12,0.61c1.33,0,2.64-0.66,3.39-1.88
		c1.17-1.87,0.61-4.34-1.27-5.51c-6.41-4.01-15.87-5.6-22.98-6.23c12.07-9.57,27.36-13.59,42.35-11.39l-1.39,6.45
		c-2.54,11.88,5.02,23.72,16.87,26.4c1.67,0.37,3.34,0.55,4.99,0.55c0.56,0,1.11-0.02,1.67-0.06l3.98,5.54l-13.98,1.09
		c-5.41,0.43-10.7-1.57-14.47-5.4c-0.42-0.42-1.56-1.75-1.77-1.92c-1.7-1.41-4.22-1.18-5.63,0.52l-3.61,4.35
		c-3.92,4.73-5.15,11.04-3.27,16.89c1.87,5.85,6.53,10.28,12.47,11.86c6.07,1.6,10.6,6.88,11.28,13.12l0.88,8.2
		c1.17,10.81,10.59,18.74,21.44,18.04l21.05-1.34c0.73-0.04,1.1,0.39,1.26,0.65c0.16,0.27,0.38,0.81,0.01,1.42l-5.17,8.62
		c-5.54,9.24-15.61,14-26.27,12.43c-10.66-1.58-18.92-9.05-21.56-19.49l-3.76-14.89c-2.98-11.84-14.36-19.46-26.42-17.73
		c-16.57,2.37-32.77-6.71-39.4-22.08l-9.44-21.88c-0.87-2.02-3.23-2.96-5.26-2.08c-2.03,0.87-2.96,3.23-2.09,5.25l9.44,21.88
		c5.94,13.76,18.19,23.36,32.28,26.31c-1.2,0.9-2.43,1.87-3.67,2.94c-7.66,6.63-12.59,14.22-14.53,22.28
		c-1.88-1.58-3.84-3.08-5.9-4.45l-16.7-11.14c-1.84-1.22-4.32-0.72-5.55,1.11c-1.22,1.84-0.73,4.32,1.11,5.55l16.7,11.13
		c12.25,8.17,20.87,20.54,24.27,34.83c3.36,14.1,1.39,28.8-5.53,41.4c-4.43,8.05-2.23,18.3,5.1,23.83
		c4.34,3.27,9.82,4.49,15.05,3.35c16.53-3.61,34.1,0.8,47,11.78c9.17,7.82,21.63,10.33,33.32,6.74c4.98-1.53,9.64-3.86,13.85-6.94
		l14-9.59c3.45-2.36,7.69-2.94,11.64-1.58c2.6,0.89,4.76,2.52,6.31,4.66c-4,0.17-8.5,1.4-12.79,4.83c-1.72,1.38-2,3.9-0.62,5.63
		c0.79,0.98,1.95,1.5,3.12,1.5c0.88,0,1.76-0.29,2.5-0.88c6.93-5.54,15.02-2.11,16.48-1.42L451.113,303.999z"/>
	<path d="M459.013,322.009c1.59,2.45,3.16,5.81,3.16,9.61c0,2.21,1.79,4,4,4s4-1.79,4-4c0-8.46-4.87-15.02-7.54-17.98
		c0.04-0.23,0.07-0.46,0.09-0.7c0.61-6.09-2.28-12.02-7.22-15.64l-8.22-6.03c-2.25-5.79-6.85-10.22-12.79-12.26
		c-6.36-2.19-13.21-1.26-18.76,2.55l-14.05,9.63c-0.04,0.02-0.07,0.04-0.1,0.07c-3.51,2.56-7.39,4.51-11.54,5.79
		c-9.05,2.78-18.69,0.84-25.78-5.19c-14.78-12.59-34.93-17.64-53.89-13.51c-3.14,0.69-6.46-0.15-9-2.3
		c-3.93-3.32-4.68-9.05-2.23-13.58c7.72-14.26,9.89-30.84,6.1-46.73c-2.52-10.59-7.56-20.24-14.61-28.25
		c0.61-16.83,17.62-27.43,23.65-30.66c0.94-0.51,1.97-0.82,3.03-0.97c0.01,0,0.01,0,0.02,0c8.02-1.15,15.55,3.91,17.54,11.76
		l3.64,14.42c3.33,13.22,14.02,23.51,27.46,25.79c2.03,0.35,4.05,0.52,6.04,0.52c11.91,0,22.74-6.08,29.06-16.62l4.99-8.31
		c1.77-2.96,2-6.69,0.32-9.7c-0.89-1.58-2.18-2.82-3.69-3.64c0.62-4.33-0.49-8.69-3.2-12.25c-3.13-4.11-8.1-6.41-13.26-6.47
		c-5.63-0.08-10.87-3.39-13.26-8.82c-1.1-2.5-1.39-5.29-1.05-8.01l1.9-15l5.45-0.42c5.6,6.85,13.43,11.31,22.27,12.62
		c1.53,0.22,3.05,0.33,4.56,0.36c0.52,2.78,0.7,7.47-2.31,12.03c-1.15,1.74-0.81,4.17,0.85,5.45c0.73,0.56,1.59,0.83,2.43,0.83
		c1.3,0,2.56-0.63,3.34-1.79c4.26-6.39,4.33-12.93,3.66-17.24c5.14-1.07,10.02-3.3,14.33-6.6l2.47-1.89
		c1.58,0.34,3.11,0.47,4.59,0.47c0.46,4.44,0.39,12.07-4.69,15.72c-1.66,1.19-2.3,3.45-1.32,5.25c0.74,1.36,2.12,2.09,3.52,2.09
		c0.79,0,1.59-0.23,2.29-0.72c8.94-6.26,8.82-18,8.08-23.99c4.72-2.09,8.34-5.91,10.41-10.14c3.83-7.83,3.38-18.96-6.27-26.17
		c-12.65-9.46-26.33-14.79-31.81-16.7c-2.28-12.4-11.63-22.59-23.97-25.81l-75.37-19.63l-27.2-22.34c-1.37-1.12-3.32-1.23-4.83-0.19
		c-1.06,0.72-1.65,1.96-1.71,3.24l-1.75,33.14l-34.24-6.14c-1-0.18-2.05-0.05-2.91,0.49c-1.7,1.05-2.33,3.08-1.67,4.82
		c0.15,0.42,3.87,10.28,9.25,21.05c0.14,0.27,0.27,0.52,0.4,0.78l-10.3,6.03l-14.94-12.57c-1.45-4.9-5.06-8.78-9.92-10.57
		c-5.5-2.02-11.68-0.75-16.21,2.97l-9.91,8.14c-4.49-1.7-9.46-1.66-13.99,0.19c-5.34,2.18-9.34,6.58-10.98,12.07
		c-2.64,8.86-6.2,16.61-10.58,23.02c-5.41,7.9-25.71,20.1-57.16,34.33c-19.3,8.74-29.99,29.1-26.39,49.9l-18.02,32.44
		c-2.92,5.25-3.39,11.62-0.9,17.1c2.83,6.2,8.68,10.3,15.4,10.86c4.52,0.38,7.62,0.62,9.77,0.77c-6.13,26.95-5.03,54.78,3.21,81.06
		c-17.22,4.32-38.76,13.66-51.8,33.87c-12.01,18.6-14.8,43.17-8.31,73.04c5.65,25.93,19,44.59,39.7,55.44
		c14.3,7.49,32.1,11.22,53.08,11.22c36.04,0,81.44-11.02,134.4-32.85c6.93-2.84,15.28-6.71,24.13-10.81
		c10.89-5.04,23.09-10.68,35.69-15.87c5.61,16,20.45,39.5,59.61,46.03c5.92,0.99,11.88,1.48,17.79,1.48
		c13.23,0,26.15-2.46,37.54-7.24c18.21-7.57,31.75-20.37,39.17-37.01c8.17-18.32,8.36-40.78,0.55-64.95
		c-2.64-8.18-6.43-15.82-11.26-22.77c0.98-1.28,1.83-2.67,2.49-4.17c1.91-4.34,2.33-9.03,1.27-13.52
		C456.413,324.729,457.833,323.469,459.013,322.009z M386.423,159.359c2.69,0,5.15,1.23,6.76,3.39c1.39,1.86,1.93,4.13,1.56,6.38
		l-18.19,1.16c-6.59,0.42-12.27-4.38-12.97-10.92l-0.89-8.2c-1.03-9.51-7.93-17.55-17.19-20c-3.33-0.88-5.84-3.27-6.9-6.56
		c-1.05-3.28-0.39-6.69,1.82-9.34l0.77-0.94c4.75,4.07,10.8,6.34,17.11,6.34c0.68,0,1.37-0.03,2.06-0.08l5.31-0.42l-1.73,13.69
		c-0.81,6.45,1.18,12.95,5.48,17.82C373.723,156.559,379.923,159.359,386.423,159.359z M371.653,93.139
		c0.41,0.06,0.83,0.09,1.25,0.09c1.93,0,3.84-0.65,5.38-1.86c1.86-1.47,3.06-3.67,3.27-6.03l0.04-0.37
		c0.64,0.13,1.27,0.25,1.91,0.35l-3.09,5.47c-3.13,5.52-9.38,8.29-15.57,6.89c-7.59-1.71-12.44-9.3-10.81-16.91l1.38-6.41
		c2.82,0.84,5.61,1.91,8.34,3.21l1.19,0.57l-0.65,5.36C363.723,88.219,366.953,92.449,371.653,93.139z M372.233,84.469l0.32-2.68
		l0.88,0.42c0.12,0.06,0.24,0.1,0.36,0.16l-0.2,2.24c-0.02,0.24-0.15,0.39-0.26,0.47c-0.1,0.09-0.28,0.18-0.52,0.14
		C372.443,85.169,372.183,84.839,372.233,84.469z M442.693,91.789c0.99,0.75,1.8,1.55,2.49,2.38c-4.93,1.07-10.08,0.81-14.86-0.77
		l9.98-3.33C441.103,90.629,441.903,91.199,442.693,91.789z M431.483,84.579l-12.72,4.25c-1.47,0.49-2.53,1.78-2.71,3.32
		s0.54,3.05,1.85,3.87l2.14,1.33c5.8,3.63,12.46,5.47,19.15,5.47c2.95,0,5.9-0.36,8.79-1.09c0.04,2.3-0.53,4.51-1.42,6.32
		c-2.16,4.42-7.37,8.86-14.92,6.78c-0.23-0.06-0.37-0.1-0.4-0.11c-1.25-0.42-2.64-0.19-3.69,0.62l-4.02,3.08
		c-5.98,4.58-13.37,6.5-20.82,5.39c-7.44-1.1-13.96-5.08-18.35-11.19l-6.4-8.91c3.85-1.93,7.16-5,9.41-8.98l5.2-9.19
		c7.52-0.78,14.75-3.92,20.54-9.26C416.553,77.489,423.633,80.209,431.483,84.579z M290.173,12.119l14.02,11.52
		c-6.25,1.29-11.26,3.95-14.98,6.6L290.173,12.119z M79.533,224.899c-2.09-0.14-5.5-0.4-11.09-0.86c-3.66-0.31-6.75-2.34-8.48-5.58
		s-1.7-6.94,0.09-10.14l18.94-34.09c0.46-0.84,0.61-1.81,0.42-2.75c-3.63-17.62,5.24-35.09,21.57-42.48
		c33.71-15.26,54.05-27.74,60.46-37.1c4.85-7.1,8.77-15.6,11.65-25.26c0.94-3.15,3.25-5.69,6.33-6.94c1.09-0.45,2.24-0.7,3.39-0.79
		c-2.46,3.42-4.07,8.09-2.57,13.73c0.48,1.79,2.1,2.97,3.87,2.97c0.34,0,0.69-0.05,1.03-0.14c2.14-0.57,3.4-2.76,2.84-4.9
		c-0.18-0.67-1.57-6.66,4.93-10.28c0.02-0.01,0.03-0.03,0.05-0.03c0.2-0.12,0.39-0.24,0.58-0.39l0.04-0.03c0-0.01,0-0.01,0-0.01
		l12.14-9.97c2.25-1.85,5.21-2.36,7.95-1.39c2.21,0.79,3.92,2.45,4.79,4.57c-2.65,3.76-7.22,11.13-6.55,16.47
		c0.26,2.02,1.98,3.5,3.97,3.5c0.16,0,0.33-0.01,0.5-0.03c2.19-0.27,3.74-2.27,3.47-4.46c-0.19-1.56,1.59-5.31,3.8-8.84l10.39,8.74
		l-16.7,9.79c-15.2,8.9-28.71,20.07-40.19,32.95l-0.01-0.01l-43.18,33.35C107.353,165.059,88.583,192.799,79.533,224.899z
		 M169.923,324.059c6.35,8.19,12.32,16.8,17.77,25.62c-1.29,0.74-2.58,1.47-3.88,2.2h-0.01c-21.13,11.8-40.18,19.14-56.65,21.84
		c-0.39-0.38-0.77-0.77-1.17-1.16c-14.5-14.16-25.72-30.74-33.34-49.29c-1.04-2.53-2.04-5.17-2.96-7.82
		c-9.49-27.54-10.62-57.06-3.26-85.37c8.24-31.71,26.37-59.11,52.44-79.24l20.7-16c-10.36,16.89-17.75,35.67-21.59,55.55
		C128.893,237.459,140.533,286.189,169.923,324.059z M116.953,374.809c-17.31,0.74-30.09-4.82-34.9-15.5
		c-3.92-8.71-1.65-19.26,5.56-27.57C94.863,347.649,104.703,362.099,116.953,374.809z M417.663,461.499
		c-14.74,5.74-32.08,7.36-49.1,4.52c-35.44-5.91-48.61-26.99-53.49-41.13c30.09-11.78,70.81-23.88,93.12-4.39
		C418.843,429.829,422.013,443.619,417.663,461.499z M454.693,368.649c7.19,22.26,7.1,42.74-0.25,59.24
		c-5.56,12.47-15.08,22.51-27.74,29.42c2.99-18.12-1.45-32.5-13.24-42.83c-26.49-23.14-72.5-8.6-104.81,4.35
		c-14.19,5.69-27.94,12.05-40.07,17.66c-8.76,4.06-17.03,7.89-23.81,10.68c-52.12,21.48-96.45,32.32-131.25,32.32
		c-19.63,0-36.23-3.45-49.46-10.39c-18.51-9.7-30.48-26.54-35.6-50.05c-6.03-27.71-3.6-50.26,7.21-67
		c11.81-18.3,31.81-26.73,47.68-30.61c0.28,0.76,0.57,1.5,0.86,2.25c-11.33,10.94-15.15,26.25-9.46,38.9
		c5.89,13.08,20.17,20.29,39.27,20.29c3.89,0,7.99-0.3,12.25-0.92c17.9-2.56,38.57-10.33,61.42-23.09c0.01,0,0.01,0,0.01,0
		s0,0,0-0.01c2.75-1.52,5.42-3.06,8.18-4.7c13.99-8.34,28.23-15.69,42.4-21.92c1.35,3.83,4.28,6.99,8.15,8.56
		c34.51,14.04,73.29,12.31,106.41-4.76c8.34-4.29,18.19-4.09,26.35,0.54l6.23,3.54c10.91,6.19,24.31,6.96,35.86,2.06
		c2.76-1.17,5.96-0.33,7.85,2.34c0.31,0.44,0.52,0.92,0.69,1.42l-11.29,7.66c-1.82,1.24-2.3,3.72-1.06,5.55
		c0.77,1.14,2.03,1.76,3.31,1.76c0.78,0,1.56-0.23,2.24-0.69l12.04-7.2c0.16-0.04,0.32-0.07,0.47-0.13l5.62-2.14
		c1.36-0.52,2.67-1.16,3.89-1.91C449.153,354.909,452.393,361.549,454.693,368.649z M454.693,312.679
		c-0.41,2.67-1.91,4.88-4.11,6.24c-2.08-1.61-5.4-3.56-9.17-3.52c-3.04,0.03-5.83,1.35-8.04,3.82c-1.48,1.64-1.35,4.17,0.3,5.64
		c1.64,1.48,4.17,1.35,5.65-0.29c0.91-1.02,1.63-1.16,2.16-1.17h0.04c1.69,0,3.8,1.47,4.96,2.51c1.21,3.21,1.17,6.69-0.17,9.88
		c-1.43,3.41-4.12,6.01-7.58,7.32l-1.26,0.48c-0.9-2.79-2.66-5.27-5.14-7.09c-4.13-3.07-9.43-3.7-14.18-1.68
		c-9.26,3.93-20.03,3.31-28.78-1.66l-6.23-3.54c-10.52-5.97-23.21-6.22-33.96-0.69c-31.04,15.99-67.4,17.62-99.74,4.46
		c-2.3-0.93-3.85-3.13-3.96-5.61l-0.26-5.59c-0.97-21.44-8.05-42.01-20.47-59.51c-15.24-21.48-19.37-49.21-11.04-74.19
		c0.7-2.1-0.43-4.36-2.53-5.06c-2.09-0.7-4.36,0.43-5.06,2.53c-9.13,27.39-4.6,57.8,12.11,81.35c11.52,16.24,18.09,35.34,19,55.24
		l0.06,1.4c-14.26,6.16-28.6,13.44-42.7,21.69c-5.62-9.12-11.78-18.01-18.35-26.48c-27.97-36.06-39.06-82.44-30.42-127.25
		c8.65-44.81,36.19-83.74,75.57-106.8l34.05-19.95c5.96,10.49,11.4,16.78,16.53,19.15c2,0.92,4.38,0.05,5.31-1.96
		c0.92-2,0.05-4.38-1.96-5.31c-6.2-2.86-14.38-17.37-20.45-30.72l15.55,11.15c3.71,2.66,5.65,7.13,5.04,11.66
		c-0.29,2.19,1.25,4.2,3.44,4.49c0.18,0.03,0.36,0.04,0.53,0.04c1.98,0,3.69-1.46,3.96-3.47c1-7.47-2.19-14.83-8.31-19.22
		l-12.6-9.04l21.4,3.85c0.94,0.17,1.6,0.47,2.08,0.81c0.47,0.34,0.76,0.71,0.97,1.03c1.73,2.66,1.07,7.64,0.7,9.16
		c-0.53,2.14,0.78,4.31,2.92,4.84c0.32,0.08,0.65,0.12,0.97,0.12c1.79,0,3.42-1.22,3.88-3.04c0.23-0.94,2.16-9.37-1.75-15.41
		c-0.91-1.42-2.08-2.59-3.46-3.49c3.7-3.53,11.82-9.55,23.69-8.92l75.81,19.74c9.37,2.44,16.46,10.22,18.13,19.65
		c-8.34,7.77-20.53,9.71-30.93,4.72l-9.68-4.63c-25.57-12.24-55.55-6.38-74.62,14.59c-1.07,1.19-1.34,2.9-0.68,4.35
		c0.67,1.46,2.13,2.37,3.73,2.34c0.2,0,19.13-0.36,28.35,5.4c0.66,0.42,1.39,0.61,2.12,0.61c1.33,0,2.64-0.66,3.39-1.88
		c1.17-1.87,0.61-4.34-1.27-5.51c-6.41-4.01-15.87-5.6-22.98-6.23c12.07-9.57,27.36-13.59,42.35-11.39l-1.39,6.45
		c-2.54,11.88,5.02,23.72,16.87,26.4c1.67,0.37,3.34,0.55,4.99,0.55c0.56,0,1.11-0.02,1.67-0.06l3.98,5.54l-13.98,1.09
		c-5.41,0.43-10.7-1.57-14.47-5.4c-0.42-0.42-1.56-1.75-1.77-1.92c-1.7-1.41-4.22-1.18-5.63,0.52l-3.61,4.35
		c-3.92,4.73-5.15,11.04-3.27,16.89c1.87,5.85,6.53,10.28,12.47,11.86c6.07,1.6,10.6,6.88,11.28,13.12l0.88,8.2
		c1.17,10.81,10.59,18.74,21.44,18.04l21.05-1.34c0.73-0.04,1.1,0.39,1.26,0.65c0.16,0.27,0.38,0.81,0.01,1.42l-5.17,8.62
		c-5.54,9.24-15.61,14-26.27,12.43c-10.66-1.58-18.92-9.05-21.56-19.49l-3.76-14.89c-2.98-11.84-14.36-19.46-26.42-17.73
		c-16.57,2.37-32.77-6.71-39.4-22.08l-9.44-21.88c-0.87-2.02-3.23-2.96-5.26-2.08c-2.03,0.87-2.96,3.23-2.09,5.25l9.44,21.88
		c5.94,13.76,18.19,23.36,32.28,26.31c-1.2,0.9-2.43,1.87-3.67,2.94c-7.66,6.63-12.59,14.22-14.53,22.28
		c-1.88-1.58-3.84-3.08-5.9-4.45l-16.7-11.14c-1.84-1.22-4.32-0.72-5.55,1.11c-1.22,1.84-0.73,4.32,1.11,5.55l16.7,11.13
		c12.25,8.17,20.87,20.54,24.27,34.83c3.36,14.1,1.39,28.8-5.53,41.4c-4.43,8.05-2.23,18.3,5.1,23.83
		c4.34,3.27,9.82,4.49,15.05,3.35c16.53-3.61,34.1,0.8,47,11.78c9.17,7.82,21.63,10.33,33.32,6.74c4.98-1.53,9.64-3.86,13.85-6.94
		l14-9.59c3.45-2.36,7.69-2.94,11.64-1.58c2.6,0.89,4.76,2.52,6.31,4.66c-4,0.17-8.5,1.4-12.79,4.83c-1.72,1.38-2,3.9-0.62,5.63
		c0.79,0.98,1.95,1.5,3.12,1.5c0.88,0,1.76-0.29,2.5-0.88c6.93-5.54,15.02-2.11,16.48-1.42l4.22,3.1
		C453.893,306.039,455.233,309.279,454.693,312.679z"/>
	<linearGradient id="SVGID_10_" gradientUnits="userSpaceOnUse" x1="430.3228" y1="92.442" x2="445.1828" y2="92.442">
		<stop  offset="0" style="stop-color:#7A7A7A"/>
		<stop  offset="1" style="stop-color:#000000"/>
	</linearGradient>
	<path style="fill:url(#SVGID_10_);" d="M445.183,94.169c-4.93,1.07-10.08,0.81-14.86-0.77l9.98-3.33c0.8,0.56,1.6,1.13,2.39,1.72
		C443.683,92.539,444.493,93.339,445.183,94.169z"/>
	<linearGradient id="SVGID_11_" gradientUnits="userSpaceOnUse" x1="98.551" y1="374.8743" x2="98.551" y2="331.7389">
		<stop  offset="0.2901" style="stop-color:#67460C"/>
		<stop  offset="1" style="stop-color:#F6A91D"/>
	</linearGradient>
	<path style="fill:url(#SVGID_11_);" d="M116.953,374.809c-17.31,0.74-30.09-4.82-34.9-15.5c-3.92-8.71-1.65-19.26,5.56-27.57
		C94.863,347.649,104.703,362.099,116.953,374.809z"/>
</g>
<g>
</g>
<g>
</g>
<g>
</g>
<g>
</g>
<g>
</g>
<g>
</g>
<g>
</g>
<g>
</g>
<g>
</g>
<g>
</g>
<g>
</g>
<g>
</g>
<g>
</g>
<g>
</g>
<g>
</g>
</svg>
